<mxfile host="app.diagrams.net" modified="2024-04-11T21:14:32.180Z" agent="Mozilla/5.0 (X11; Linux x86_64) AppleWebKit/537.36 (KHTML, like Gecko) Chrome/121.0.0.0 Safari/537.36" version="24.2.3" etag="gKmr8U43KkHXa38zfhrU" type="github">
  <diagram name="Page-1" id="0nBSpYFTiwp0StI14RwW">
    <mxGraphModel>
      <root>
        <mxCell id="0" />
        <mxCell id="1" parent="0" />
      </root>
    </mxGraphModel>
  </diagram>
</mxfile>
